<svg width="64" height="65" viewBox="0 0 64 65" fill="none" xmlns="http://www.w3.org/2000/svg">
<path d="M31.8737 0.183562C49.3241 0.245723 63.5206 14.315 63.5824 31.6082C63.6457 49.2996 53.2395 55.0552 39.6529 55.0068C31.2798 54.9769 27.8368 64.1018 18.6585 59.7996C7.90486 54.7589 0.433804 43.9179 0.388968 31.3831C0.327111 14.0899 14.4233 0.1214 31.8737 0.183562Z" fill="#F0F6A1"/>
<path d="M50.1718 58.4312C35.6456 68.6762 15.601 65.2534 5.401 50.7863C-5.03383 35.986 4.14572 27.0464 7.73345 16.0654C9.43832 10.8473 13.9423 3.97281 26.1589 0.633671C38.0462 -1.48429 50.3488 3.38493 57.7422 13.8714C67.9422 28.3385 64.6981 48.1862 50.1718 58.4312Z" fill="#6BA8CA"/>
<path d="M4.20406 29.382C5.89849 13.5489 19.4734 1.99047 35.2282 3.63927C52.2015 5.41559 50.1867 17.813 55.1971 27.8336C57.8857 35.5329 61.659 36.9893 56.6857 47.1949C51.0859 56.4588 40.5424 61.8846 29.1228 60.6895C13.368 59.0407 2.50964 45.2151 4.20406 29.382Z" fill="#4D96BF"/>
<path fill-rule="evenodd" clip-rule="evenodd" d="M22.2994 20.058C23.7035 17.7421 26.8149 17.3915 29.5837 17.1022C32.4871 16.7988 35.6656 16.5063 38.115 18.4051C40.6025 20.3335 41.7833 23.5897 41.8379 26.6021C41.8864 29.2708 39.9887 31.1681 38.3823 33.1399C36.8375 35.0361 35.3298 36.9989 32.8987 37.5745C30.0284 38.2542 26.4365 38.7279 24.1727 36.5045C21.9484 34.3201 23.3812 30.8788 23.0412 27.8934C22.732 25.1788 20.9558 22.2742 22.2994 20.058Z" fill="#EAF27C"/>
<path fill-rule="evenodd" clip-rule="evenodd" d="M22.132 42.0739C23.6925 44.76 27.2518 45.2314 30.4196 45.6249C33.7415 46.0375 35.7651 46.562 38.6131 44.44C41.5053 42.285 42.4431 40.082 42.5694 36.6301C42.6813 33.5719 41.2458 31.9722 39.446 29.676C37.7152 27.4679 37.4272 22.945 34.6525 22.2308C31.3766 21.3877 25.482 16.9072 22.8399 19.4054C20.244 21.8598 22.7722 28.1871 22.3193 31.6017C21.9074 34.7067 20.6385 39.5034 22.132 42.0739Z" fill="#EAF27C"/>
<path d="M37.348 25.1763C37.4036 25.0539 37.5477 24.9997 37.6702 25.0551C37.7928 25.1105 37.8472 25.2548 37.7917 25.3773L37.5766 25.28C37.7918 25.3773 37.7917 25.3775 37.7916 25.3776L37.7913 25.3783C37.7911 25.3787 37.791 25.3792 37.7908 25.3796C37.7903 25.3806 37.7897 25.3817 37.7891 25.3829C37.7879 25.3855 37.7863 25.3888 37.7844 25.3927C37.7806 25.4004 37.7754 25.4106 37.7687 25.423C37.7553 25.4477 37.736 25.4813 37.71 25.5208C37.6582 25.5996 37.5791 25.7037 37.4678 25.8089C37.243 26.0215 36.8883 26.2367 36.3756 26.2587C35.8892 26.2795 35.5502 26.1724 35.3257 26.0462C35.2145 25.9837 35.1342 25.9181 35.0796 25.8649C35.0524 25.8384 35.0316 25.815 35.0166 25.7967C35.0091 25.7876 35.003 25.7797 34.9983 25.7733C34.996 25.7702 34.9941 25.7674 34.9924 25.765C34.9916 25.7638 34.9908 25.7627 34.9901 25.7618C34.9898 25.7613 34.9894 25.7607 34.9891 25.7603C34.989 25.7601 34.9888 25.7599 34.9887 25.7597C34.9886 25.7596 34.9885 25.7594 34.9885 25.7593C34.9885 25.7591 34.9936 25.7556 35.191 25.624C35.1975 25.6197 35.2038 25.6155 35.2099 25.6114L34.9883 25.7591C34.9137 25.6472 34.944 25.496 35.0559 25.4213C35.1677 25.3468 35.3187 25.3769 35.3934 25.4886L35.3933 25.4883C35.3932 25.4882 35.393 25.4879 35.3929 25.4878C35.3927 25.4874 35.3925 25.4871 35.3923 25.4868C35.3919 25.4863 35.3916 25.4858 35.3914 25.4854L35.3934 25.488C35.3975 25.493 35.4061 25.5029 35.4196 25.516C35.4464 25.5422 35.4932 25.5814 35.5644 25.6215C35.705 25.7005 35.9532 25.7891 36.3548 25.772C36.73 25.7559 36.9775 25.602 37.1331 25.4549C37.212 25.3803 37.2677 25.3068 37.303 25.2531C37.3206 25.2264 37.3328 25.205 37.3402 25.1913C37.3439 25.1845 37.3463 25.1796 37.3476 25.1771L37.348 25.1763ZM37.3483 25.1758C37.3484 25.1756 37.3484 25.1754 37.3485 25.1752C37.3486 25.1751 37.3487 25.175 37.3487 25.175C37.3487 25.1751 37.3485 25.1753 37.3483 25.1758Z" fill="#203627"/>
<path d="M32.6432 14.3761C32.6991 14.2544 32.8429 14.2007 32.965 14.2559C33.0875 14.3113 33.1419 14.4556 33.0865 14.5782L32.8646 14.4778L33.0864 14.5784L33.0855 14.5803C33.0851 14.5812 33.0845 14.5823 33.084 14.5835C33.0828 14.5859 33.0814 14.589 33.0796 14.5925C33.0761 14.5996 33.0714 14.609 33.0653 14.6203C33.0532 14.6428 33.0355 14.6731 33.0121 14.7087C32.9654 14.7798 32.8942 14.8734 32.794 14.9681C32.5915 15.1597 32.2719 15.3534 31.8112 15.3731C31.3767 15.3917 31.0721 15.2961 30.869 15.1819C30.7685 15.1254 30.6956 15.0659 30.6458 15.0174C30.6209 14.9932 30.6018 14.9718 30.588 14.9549C30.5811 14.9464 30.5754 14.9391 30.571 14.9331C30.5688 14.9301 30.5669 14.9274 30.5653 14.9251C30.5645 14.924 30.5638 14.9228 30.5631 14.9219C30.5628 14.9214 30.5624 14.9209 30.5621 14.9205C30.562 14.9203 30.5618 14.9201 30.5617 14.9199C30.5617 14.9198 30.5615 14.9196 30.5615 14.9196C30.5615 14.9194 30.566 14.9162 30.764 14.7843C30.7708 14.7797 30.7774 14.7753 30.7838 14.771L30.5613 14.9193C30.4867 14.8074 30.517 14.6561 30.6289 14.5815C30.7407 14.507 30.8917 14.5372 30.9664 14.6488L30.9663 14.6486C30.9662 14.6484 30.966 14.6482 30.9659 14.648C30.9657 14.6477 30.9655 14.6474 30.9653 14.6471C30.9649 14.6465 30.9646 14.6459 30.9642 14.6455L30.9647 14.646C30.9678 14.6497 30.9746 14.6577 30.9857 14.6685C31.0078 14.69 31.0471 14.7231 31.1077 14.7572C31.2269 14.8242 31.4407 14.9014 31.7903 14.8864C32.1137 14.8726 32.3261 14.7403 32.4594 14.6143C32.5271 14.5502 32.5748 14.4871 32.6051 14.4411C32.6201 14.4183 32.6306 14.4 32.6367 14.3886C32.6398 14.3829 32.6418 14.3789 32.6428 14.3769L32.6432 14.3761Z" fill="#203627"/>
<path d="M37.9665 14.2014C38.0213 14.0785 38.1654 14.0234 38.2882 14.0783C38.411 14.1331 38.4662 14.2772 38.4113 14.4C38.3785 14.4734 38.3248 14.5372 38.275 14.5877C38.2223 14.6411 38.1589 14.6942 38.0907 14.7448C37.9542 14.8461 37.7849 14.9476 37.61 15.0319C37.4362 15.1158 37.2469 15.1877 37.0706 15.2236C36.9083 15.2567 36.6967 15.272 36.528 15.1681L36.7836 14.7534C36.7808 14.7516 36.7911 14.7588 36.8274 14.7608C36.8629 14.7627 36.9116 14.7588 36.9733 14.7462C37.0973 14.7209 37.2469 14.6662 37.3983 14.5932C37.5488 14.5206 37.6913 14.4347 37.8004 14.3537C37.855 14.3132 37.898 14.2763 37.9285 14.2454C37.962 14.2115 37.9686 14.1966 37.9665 14.2014ZM36.4484 14.833C36.519 14.7185 36.6691 14.6828 36.7836 14.7534L36.528 15.1681C36.4135 15.0975 36.3779 14.9475 36.4484 14.833Z" fill="#203627"/>
<path d="M36.5003 20.2354C36.5003 22.4375 35.3331 24.2227 33.8932 24.2227C32.4534 24.2227 31.2861 22.4375 31.2861 20.2354C31.2861 18.0333 32.4534 16.2481 33.8932 16.2481C35.3331 16.2481 36.5003 18.0333 36.5003 20.2354Z" fill="#B9E6FF"/>
<path d="M36.0131 20.2354C36.0131 19.2153 35.7419 18.314 35.329 17.6826C34.9133 17.0468 34.3952 16.7353 33.8933 16.7353C33.3913 16.7353 32.8732 17.0468 32.4575 17.6826C32.0446 18.314 31.7733 19.2153 31.7733 20.2354C31.7733 21.2556 32.0446 22.1568 32.4575 22.7883C32.8732 23.4241 33.3914 23.7356 33.8933 23.7356V24.2228L33.8259 24.2215C32.4395 24.1677 31.3221 22.4587 31.287 20.3383L31.2861 20.2354C31.2861 18.0333 32.4534 16.2481 33.8933 16.2481L33.9604 16.2494C35.3692 16.304 36.5003 18.0677 36.5003 20.2354L36.4994 20.3383C36.4637 22.4929 35.3106 24.2227 33.8933 24.2228V23.7356C34.3951 23.7356 34.9133 23.4241 35.329 22.7883C35.7419 22.1568 36.0131 21.2556 36.0131 20.2354Z" fill="#203627"/>
<mask id="mask0_18206_13728" style="mask-type:alpha" maskUnits="userSpaceOnUse" x="31" y="16" width="6" height="9">
<path d="M36.5003 20.2354C36.5003 22.4375 35.3331 24.2227 33.8932 24.2227C32.4534 24.2227 31.2861 22.4375 31.2861 20.2354C31.2861 18.0333 32.4534 16.2481 33.8932 16.2481C35.3331 16.2481 36.5003 18.0333 36.5003 20.2354Z" fill="#B9E6FF"/>
</mask>
<g mask="url(#mask0_18206_13728)">
<path d="M35.2735 19.7754C35.2735 21.5541 34.3123 22.996 33.1265 22.996C31.9407 22.996 30.9795 21.5541 30.9795 19.7754C30.9795 17.9968 31.9407 16.5549 33.1265 16.5549C34.3123 16.5549 35.2735 17.9968 35.2735 19.7754Z" fill="#203627"/>
</g>
<path d="M40.846 20.2354C40.846 22.4375 39.6788 24.2227 38.2389 24.2227C36.7991 24.2227 35.6318 22.4375 35.6318 20.2354C35.6318 18.0333 36.7991 16.2481 38.2389 16.2481C39.6788 16.2481 40.846 18.0333 40.846 20.2354Z" fill="#B9E6FF"/>
<path d="M40.3588 20.2354C40.3588 19.2153 40.0876 18.314 39.6747 17.6826C39.259 17.0468 38.7409 16.7353 38.239 16.7353C37.737 16.7353 37.2189 17.0468 36.8032 17.6826C36.3903 18.314 36.119 19.2153 36.119 20.2354C36.119 21.2556 36.3903 22.1568 36.8032 22.7883C37.2189 23.4241 37.7371 23.7356 38.239 23.7356V24.2228L38.1716 24.2215C36.7852 24.1677 35.6678 22.4587 35.6327 20.3383L35.6318 20.2354C35.6318 18.0333 36.7991 16.2481 38.239 16.2481L38.3062 16.2494C39.7149 16.304 40.846 18.0677 40.846 20.2354L40.8451 20.3383C40.8094 22.4929 39.6563 24.2227 38.239 24.2228V23.7356C38.7408 23.7356 39.259 23.4241 39.6747 22.7883C40.0876 22.1568 40.3588 21.2556 40.3588 20.2354Z" fill="#203627"/>
<mask id="mask1_18206_13728" style="mask-type:alpha" maskUnits="userSpaceOnUse" x="35" y="16" width="6" height="9">
<path d="M40.846 20.2354C40.846 22.4375 39.6788 24.2227 38.2389 24.2227C36.7991 24.2227 35.6318 22.4375 35.6318 20.2354C35.6318 18.0333 36.7991 16.2481 38.2389 16.2481C39.6788 16.2481 40.846 18.0333 40.846 20.2354Z" fill="#B9E6FF"/>
</mask>
<g mask="url(#mask1_18206_13728)">
<path d="M39.6192 19.7754C39.6192 21.5541 38.658 22.996 37.4722 22.996C36.2864 22.996 35.3252 21.5541 35.3252 19.7754C35.3252 17.9968 36.2864 16.5549 37.4722 16.5549C38.658 16.5549 39.6192 17.9968 39.6192 19.7754Z" fill="#203627"/>
</g>
</svg>
