<svg width="64" height="65" viewBox="0 0 64 65" fill="none" xmlns="http://www.w3.org/2000/svg">
<path d="M31.8737 0.18347C49.3241 0.245632 63.5206 14.3149 63.5824 31.6081C63.6457 49.2995 53.2395 55.0551 39.6529 55.0067C31.2798 54.9769 27.8368 64.1017 18.6585 59.7995C7.90486 54.7588 0.433804 43.9178 0.388968 31.383C0.327111 14.0898 14.4233 0.121309 31.8737 0.18347Z" fill="#F0F6A1"/>
<path d="M50.1718 58.4312C35.6456 68.6761 15.601 65.2534 5.401 50.7862C-5.03383 35.9859 4.14572 27.0463 7.73345 16.0653C9.43832 10.8473 13.9423 3.97275 26.1589 0.63361C38.0462 -1.48435 50.3488 3.38487 57.7422 13.8713C67.9422 28.3385 64.6981 48.1862 50.1718 58.4312Z" fill="#6BA8CA"/>
<path d="M4.20406 29.3819C5.89849 13.5488 19.4734 1.99041 35.2282 3.63921C52.2015 5.41553 50.1867 17.8129 55.1971 27.8335C57.8857 35.5329 61.659 36.9892 56.6857 47.1949C51.0859 56.4587 40.5424 61.8845 29.1228 60.6894C13.368 59.0406 2.50964 45.215 4.20406 29.3819Z" fill="#4D96BF"/>
<path fill-rule="evenodd" clip-rule="evenodd" d="M22.2994 20.058C23.7035 17.7422 26.8149 17.3916 29.5837 17.1022C32.4871 16.7988 35.6656 16.5064 38.115 18.4052C40.6025 20.3336 41.7833 23.5898 41.8379 26.6021C41.8864 29.2709 39.9887 31.1682 38.3823 33.14C36.8375 35.0361 35.3298 36.9989 32.8987 37.5746C30.0284 38.2542 26.4365 38.728 24.1727 36.5046C21.9484 34.3201 23.3812 30.8789 23.0412 27.8935C22.732 25.1788 20.9558 22.2743 22.2994 20.058Z" fill="#EAF27C"/>
<path fill-rule="evenodd" clip-rule="evenodd" d="M22.132 42.074C23.6925 44.7601 27.2518 45.2314 30.4196 45.6249C33.7415 46.0376 35.7651 46.5621 38.6131 44.4401C41.5053 42.285 42.4431 40.0821 42.5694 36.6301C42.6813 33.5719 41.2458 31.9722 39.446 29.6761C37.7152 27.4679 37.4272 22.9451 34.6525 22.2309C31.3766 21.3877 25.482 16.9073 22.8399 19.4054C20.244 21.8599 22.7722 28.1871 22.3193 31.6018C21.9074 34.7068 20.6385 39.5035 22.132 42.074Z" fill="#EAF27C"/>
<path d="M37.348 25.1762C37.4036 25.0538 37.5477 24.9995 37.6702 25.0549C37.7928 25.1103 37.8472 25.2546 37.7917 25.3772L37.5766 25.2798C37.7918 25.3771 37.7917 25.3773 37.7916 25.3774L37.7913 25.3782C37.7911 25.3785 37.791 25.379 37.7908 25.3795C37.7903 25.3804 37.7897 25.3815 37.7891 25.3828C37.7879 25.3853 37.7863 25.3886 37.7844 25.3925C37.7806 25.4002 37.7754 25.4104 37.7687 25.4228C37.7553 25.4476 37.736 25.4812 37.71 25.5207C37.6582 25.5995 37.5791 25.7035 37.4678 25.8088C37.243 26.0213 36.8883 26.2366 36.3756 26.2585C35.8892 26.2793 35.5502 26.1722 35.3257 26.0461C35.2145 25.9836 35.1342 25.918 35.0796 25.8648C35.0524 25.8383 35.0316 25.8148 35.0166 25.7965C35.0091 25.7874 35.003 25.7795 34.9983 25.7732C34.996 25.77 34.9941 25.7672 34.9924 25.7648C34.9916 25.7637 34.9908 25.7626 34.9901 25.7616C34.9898 25.7611 34.9894 25.7605 34.9891 25.7601C34.989 25.7599 34.9888 25.7597 34.9887 25.7595C34.9886 25.7594 34.9885 25.7592 34.9885 25.7592C34.9885 25.7589 34.9936 25.7554 35.191 25.6239C35.1975 25.6195 35.2038 25.6153 35.2099 25.6113L34.9883 25.7589C34.9137 25.647 34.944 25.4958 35.0559 25.4212C35.1677 25.3467 35.3187 25.3768 35.3934 25.4884L35.3933 25.4882C35.3932 25.488 35.393 25.4878 35.3929 25.4876C35.3927 25.4873 35.3925 25.487 35.3923 25.4867C35.3919 25.4862 35.3916 25.4857 35.3914 25.4853L35.3934 25.4878C35.3975 25.4929 35.4061 25.5028 35.4196 25.5159C35.4464 25.542 35.4932 25.5813 35.5644 25.6213C35.705 25.7003 35.9532 25.789 36.3548 25.7718C36.73 25.7558 36.9775 25.6018 37.1331 25.4548C37.212 25.3801 37.2677 25.3067 37.303 25.253C37.3206 25.2263 37.3328 25.2048 37.3402 25.1911C37.3439 25.1843 37.3463 25.1795 37.3476 25.1769L37.348 25.1762ZM37.3483 25.1757C37.3484 25.1755 37.3484 25.1752 37.3485 25.1751C37.3486 25.1749 37.3487 25.1749 37.3487 25.1748C37.3487 25.1749 37.3485 25.1752 37.3483 25.1757Z" fill="#203627"/>
<path d="M32.6432 14.376C32.6991 14.2544 32.8429 14.2006 32.965 14.2558C33.0875 14.3113 33.1419 14.4556 33.0865 14.5781L32.8646 14.4777L33.0864 14.5783L33.0855 14.5803C33.0851 14.5812 33.0845 14.5823 33.084 14.5834C33.0828 14.5859 33.0814 14.5889 33.0796 14.5924C33.0761 14.5996 33.0714 14.6089 33.0653 14.6202C33.0532 14.6427 33.0355 14.673 33.0121 14.7087C32.9654 14.7797 32.8942 14.8734 32.794 14.9681C32.5915 15.1596 32.2719 15.3534 31.8112 15.3731C31.3767 15.3916 31.0721 15.296 30.869 15.1818C30.7685 15.1253 30.6956 15.0659 30.6458 15.0173C30.6209 14.9931 30.6018 14.9717 30.588 14.9548C30.5811 14.9464 30.5754 14.939 30.571 14.933C30.5688 14.93 30.5669 14.9274 30.5653 14.9251C30.5645 14.9239 30.5638 14.9228 30.5631 14.9218C30.5628 14.9213 30.5624 14.9209 30.5621 14.9204C30.562 14.9202 30.5618 14.92 30.5617 14.9199C30.5617 14.9198 30.5615 14.9196 30.5615 14.9195C30.5615 14.9193 30.566 14.9161 30.764 14.7842C30.7708 14.7796 30.7774 14.7752 30.7838 14.771L30.5613 14.9193C30.4867 14.8073 30.517 14.656 30.6289 14.5814C30.7407 14.5069 30.8917 14.5371 30.9664 14.6488L30.9663 14.6485C30.9662 14.6483 30.966 14.6481 30.9659 14.6479C30.9657 14.6476 30.9655 14.6473 30.9653 14.647C30.9649 14.6464 30.9646 14.6458 30.9642 14.6454L30.9647 14.646C30.9678 14.6497 30.9746 14.6576 30.9857 14.6684C31.0078 14.6899 31.0471 14.723 31.1077 14.7571C31.2269 14.8241 31.4407 14.9013 31.7903 14.8864C32.1137 14.8725 32.3261 14.7403 32.4594 14.6142C32.5271 14.5501 32.5748 14.487 32.6051 14.4411C32.6201 14.4182 32.6306 14.4 32.6367 14.3885C32.6398 14.3828 32.6418 14.3788 32.6428 14.3768L32.6432 14.376Z" fill="#203627"/>
<path d="M37.9665 14.2013C38.0213 14.0785 38.1654 14.0234 38.2882 14.0782C38.411 14.1331 38.4662 14.2771 38.4113 14.4C38.3785 14.4734 38.3248 14.5372 38.275 14.5876C38.2223 14.6411 38.1589 14.6942 38.0907 14.7448C37.9542 14.8461 37.7849 14.9475 37.61 15.0319C37.4362 15.1158 37.2469 15.1877 37.0706 15.2236C36.9083 15.2566 36.6967 15.272 36.528 15.168L36.7836 14.7534C36.7808 14.7516 36.7911 14.7588 36.8274 14.7607C36.8629 14.7626 36.9116 14.7587 36.9733 14.7462C37.0973 14.7209 37.2469 14.6662 37.3983 14.5931C37.5488 14.5206 37.6913 14.4347 37.8004 14.3537C37.855 14.3131 37.898 14.2762 37.9285 14.2453C37.962 14.2114 37.9686 14.1966 37.9665 14.2013ZM36.4484 14.8329C36.519 14.7184 36.6691 14.6828 36.7836 14.7534L36.528 15.168C36.4135 15.0974 36.3779 14.9474 36.4484 14.8329Z" fill="#203627"/>
<path d="M36.5003 20.2353C36.5003 22.4375 35.3331 24.2227 33.8932 24.2227C32.4534 24.2227 31.2861 22.4375 31.2861 20.2353C31.2861 18.0332 32.4534 16.248 33.8932 16.248C35.3331 16.248 36.5003 18.0332 36.5003 20.2353Z" fill="#B9E6FF"/>
<path d="M36.0131 20.2354C36.0131 19.2152 35.7419 18.314 35.329 17.6825C34.9133 17.0467 34.3952 16.7352 33.8933 16.7352C33.3913 16.7352 32.8732 17.0467 32.4575 17.6825C32.0446 18.314 31.7733 19.2152 31.7733 20.2354C31.7733 21.2555 32.0446 22.1568 32.4575 22.7883C32.8732 23.424 33.3914 23.7356 33.8933 23.7356V24.2227L33.8259 24.2214C32.4395 24.1677 31.3221 22.4586 31.287 20.3383L31.2861 20.2354C31.2861 18.0332 32.4534 16.248 33.8933 16.248L33.9604 16.2494C35.3692 16.3039 36.5003 18.0676 36.5003 20.2354L36.4994 20.3383C36.4637 22.4928 35.3106 24.2227 33.8933 24.2227V23.7356C34.3951 23.7355 34.9133 23.424 35.329 22.7883C35.7419 22.1568 36.0131 21.2555 36.0131 20.2354Z" fill="#203627"/>
<mask id="mask0_18208_12831" style="mask-type:alpha" maskUnits="userSpaceOnUse" x="31" y="16" width="6" height="9">
<path d="M36.5003 20.2353C36.5003 22.4375 35.3331 24.2227 33.8932 24.2227C32.4534 24.2227 31.2861 22.4375 31.2861 20.2353C31.2861 18.0332 32.4534 16.248 33.8932 16.248C35.3331 16.248 36.5003 18.0332 36.5003 20.2353Z" fill="#B9E6FF"/>
</mask>
<g mask="url(#mask0_18208_12831)">
<path d="M35.2735 19.7754C35.2735 21.5541 34.3123 22.996 33.1265 22.996C31.9407 22.996 30.9795 21.5541 30.9795 19.7754C30.9795 17.9968 31.9407 16.5549 33.1265 16.5549C34.3123 16.5549 35.2735 17.9968 35.2735 19.7754Z" fill="#203627"/>
</g>
<path d="M40.846 20.2353C40.846 22.4375 39.6788 24.2227 38.2389 24.2227C36.7991 24.2227 35.6318 22.4375 35.6318 20.2353C35.6318 18.0332 36.7991 16.248 38.2389 16.248C39.6788 16.248 40.846 18.0332 40.846 20.2353Z" fill="#B9E6FF"/>
<path d="M40.3588 20.2354C40.3588 19.2152 40.0876 18.314 39.6747 17.6825C39.259 17.0467 38.7409 16.7352 38.239 16.7352C37.737 16.7352 37.2189 17.0467 36.8032 17.6825C36.3903 18.314 36.119 19.2152 36.119 20.2354C36.119 21.2555 36.3903 22.1568 36.8032 22.7883C37.2189 23.424 37.7371 23.7356 38.239 23.7356V24.2227L38.1716 24.2214C36.7852 24.1677 35.6678 22.4586 35.6327 20.3383L35.6318 20.2354C35.6318 18.0332 36.7991 16.248 38.239 16.248L38.3062 16.2494C39.7149 16.3039 40.846 18.0676 40.846 20.2354L40.8451 20.3383C40.8094 22.4928 39.6563 24.2227 38.239 24.2227V23.7356C38.7408 23.7355 39.259 23.424 39.6747 22.7883C40.0876 22.1568 40.3588 21.2555 40.3588 20.2354Z" fill="#203627"/>
<mask id="mask1_18208_12831" style="mask-type:alpha" maskUnits="userSpaceOnUse" x="35" y="16" width="6" height="9">
<path d="M40.846 20.2353C40.846 22.4375 39.6788 24.2227 38.2389 24.2227C36.7991 24.2227 35.6318 22.4375 35.6318 20.2353C35.6318 18.0332 36.7991 16.248 38.2389 16.248C39.6788 16.248 40.846 18.0332 40.846 20.2353Z" fill="#B9E6FF"/>
</mask>
<g mask="url(#mask1_18208_12831)">
<path d="M39.6192 19.7754C39.6192 21.5541 38.658 22.996 37.4722 22.996C36.2864 22.996 35.3252 21.5541 35.3252 19.7754C35.3252 17.9968 36.2864 16.5549 37.4722 16.5549C38.658 16.5549 39.6192 17.9968 39.6192 19.7754Z" fill="#203627"/>
</g>
</svg>
