<svg width="65" height="65" viewBox="0 0 65 65" fill="none" xmlns="http://www.w3.org/2000/svg">
<path d="M59.1372 15.8342C67.5487 29.6244 62.3272 47.3836 47.799 55.3229C33.2709 63.2623 17.0006 59.745 8.58904 45.9548C6.30439 42.2092 2.68003 36.9556 2.29188 32.9162C1.25099 22.0835 6.75592 11.1669 17.3381 5.38394C31.8663 -2.55543 50.7257 2.04392 59.1372 15.8342Z" fill="#EAF27C"/>
<path d="M59.1388 15.2218C67.4315 29.3001 62.5097 47.3023 48.1455 55.4308C33.4506 63.7464 18.5146 58.4333 12.058 47.4722C8.0789 40.717 3.36542 36.2468 3.19887 32.4325C2.71678 21.391 7.70298 10.3405 18.1147 4.44871C32.4789 -3.67976 50.846 1.14355 59.1388 15.2218Z" fill="#F6FAC6"/>
<path d="M59.1117 15.0446C67.4305 28.9247 62.5415 46.6466 48.1918 54.6276C30.667 65 21.1439 57.3068 14.667 46.5C10.6754 39.84 3.51849 38.7595 3.2016 31.8988C2.69927 21.0232 7.66539 10.1481 18.0666 4.36324C32.4164 -3.6177 50.7929 1.16456 59.1117 15.0446Z" fill="#C5DDEB"/>
<path d="M59.1114 15.3003C67.4249 29.4186 62.5487 47.4391 48.22 55.5502C33.5614 63.8481 23.7942 58.1291 17.3214 47.1369C13.3324 40.3626 4.1057 41.8363 3.27801 32.4203C2.30826 21.3883 7.72805 10.3027 18.114 4.42344C32.4427 -3.68768 50.7979 1.18209 59.1114 15.3003Z" fill="#A7CCE0"/>
<path d="M58.9685 15.2606C67.641 29.6888 62.4281 48.334 47.4747 56.6266C28.7494 65.4428 22.6372 51.6972 17.4291 45.8551C12.442 40.2609 2.82036 43.2916 0.58202 32.9943C-1.65632 22.697 5.38674 10.6492 16.2256 4.63846C31.179 -3.65407 50.2959 0.832329 58.9685 15.2606Z" fill="#89BAD5"/>
<path fill-rule="evenodd" clip-rule="evenodd" d="M22.4664 20.558C23.8705 18.2421 26.9819 17.8915 29.7507 17.6022C32.6541 17.2988 35.8326 17.0063 38.282 18.9051C40.7695 20.8335 41.9503 24.0897 42.0049 27.1021C42.0534 29.7708 40.1557 31.6681 38.5493 33.6399C37.0045 35.5361 35.4968 37.4989 33.0657 38.0745C30.1954 38.7542 26.6035 39.2279 24.3397 37.0045C22.1154 34.8201 23.5482 31.3788 23.2082 28.3934C22.899 25.6788 21.1227 22.7742 22.4664 20.558Z" fill="#EAF27C"/>
<path fill-rule="evenodd" clip-rule="evenodd" d="M22.2989 42.5739C23.8595 45.26 27.4188 45.7314 30.5866 46.1249C33.9085 46.5375 35.9321 47.062 38.7801 44.94C41.6723 42.785 42.61 40.582 42.7364 37.1301C42.8483 34.0719 41.4127 32.4722 39.613 30.176C37.8822 27.9679 37.5942 23.445 34.8195 22.7308C31.5436 21.8877 25.649 17.4072 23.0068 19.9054C20.4109 22.3598 22.9392 28.6871 22.4863 32.1017C22.0744 35.2067 20.8055 40.0034 22.2989 42.5739Z" fill="#EAF27C"/>
<path d="M37.515 25.6763C37.5706 25.5539 37.7147 25.4997 37.8372 25.5551C37.9598 25.6105 38.0142 25.7548 37.9587 25.8773L37.7436 25.78C37.9588 25.8773 37.9587 25.8775 37.9586 25.8776L37.9583 25.8783C37.9581 25.8787 37.958 25.8792 37.9578 25.8796C37.9573 25.8806 37.9567 25.8817 37.9561 25.8829C37.9549 25.8855 37.9533 25.8888 37.9514 25.8927C37.9476 25.9004 37.9424 25.9106 37.9357 25.923C37.9223 25.9477 37.903 25.9813 37.877 26.0208C37.8252 26.0996 37.7461 26.2037 37.6348 26.3089C37.41 26.5215 37.0553 26.7367 36.5426 26.7587C36.0562 26.7795 35.7172 26.6724 35.4927 26.5462C35.3815 26.4837 35.3012 26.4181 35.2466 26.3649C35.2194 26.3384 35.1986 26.315 35.1836 26.2967C35.1761 26.2876 35.17 26.2797 35.1653 26.2733C35.163 26.2702 35.1611 26.2674 35.1594 26.265C35.1586 26.2638 35.1578 26.2627 35.1571 26.2618C35.1568 26.2613 35.1564 26.2607 35.1561 26.2603C35.156 26.2601 35.1558 26.2599 35.1557 26.2597C35.1556 26.2596 35.1555 26.2594 35.1555 26.2593C35.1555 26.2591 35.1606 26.2556 35.358 26.124C35.3645 26.1197 35.3708 26.1155 35.3769 26.1114L35.1553 26.2591C35.0807 26.1472 35.111 25.996 35.2229 25.9213C35.3347 25.8468 35.4857 25.8769 35.5604 25.9886L35.5603 25.9883C35.5602 25.9882 35.56 25.9879 35.5599 25.9878C35.5597 25.9874 35.5594 25.9871 35.5593 25.9868C35.5589 25.9863 35.5586 25.9858 35.5584 25.9854L35.5604 25.988C35.5645 25.993 35.5731 26.0029 35.5866 26.016C35.6134 26.0422 35.6602 26.0814 35.7314 26.1215C35.872 26.2005 36.1202 26.2891 36.5218 26.272C36.897 26.2559 37.1445 26.102 37.3001 25.9549C37.379 25.8803 37.4347 25.8068 37.47 25.7531C37.4876 25.7264 37.4998 25.705 37.5072 25.6913C37.5109 25.6845 37.5133 25.6796 37.5146 25.6771L37.515 25.6763ZM37.5153 25.6758C37.5154 25.6756 37.5154 25.6754 37.5155 25.6752C37.5155 25.6751 37.5157 25.675 37.5157 25.675C37.5157 25.6751 37.5155 25.6753 37.5153 25.6758Z" fill="#203627"/>
<path d="M32.8102 14.8761C32.8661 14.7544 33.0099 14.7007 33.132 14.7559C33.2545 14.8113 33.3089 14.9556 33.2535 15.0782L33.0316 14.9778L33.2534 15.0784L33.2525 15.0803C33.2521 15.0812 33.2515 15.0823 33.251 15.0835C33.2498 15.0859 33.2484 15.089 33.2466 15.0925C33.2431 15.0996 33.2384 15.109 33.2323 15.1203C33.2201 15.1428 33.2025 15.1731 33.1791 15.2087C33.1324 15.2798 33.0612 15.3734 32.961 15.4681C32.7585 15.6597 32.4389 15.8534 31.9781 15.8731C31.5437 15.8917 31.2391 15.7961 31.036 15.6819C30.9354 15.6254 30.8626 15.5659 30.8128 15.5174C30.7879 15.4932 30.7688 15.4718 30.755 15.4549C30.748 15.4464 30.7424 15.4391 30.738 15.4331C30.7358 15.4301 30.7339 15.4274 30.7323 15.4251C30.7315 15.424 30.7308 15.4228 30.7301 15.4219C30.7298 15.4214 30.7294 15.4209 30.7291 15.4205C30.729 15.4203 30.7288 15.4201 30.7287 15.4199C30.7286 15.4198 30.7285 15.4196 30.7285 15.4196C30.7285 15.4194 30.733 15.4162 30.931 15.2843C30.9378 15.2797 30.9444 15.2753 30.9508 15.271L30.7283 15.4193C30.6537 15.3074 30.684 15.1561 30.7959 15.0815C30.9077 15.007 31.0587 15.0372 31.1334 15.1488L31.1333 15.1486C31.1332 15.1484 31.133 15.1482 31.1329 15.148C31.1327 15.1477 31.1325 15.1474 31.1323 15.1471C31.1319 15.1465 31.1315 15.1459 31.1312 15.1455L31.1317 15.146C31.1348 15.1497 31.1416 15.1577 31.1527 15.1685C31.1748 15.19 31.2141 15.2231 31.2747 15.2572C31.3939 15.3242 31.6077 15.4014 31.9573 15.3864C32.2807 15.3726 32.4931 15.2403 32.6264 15.1143C32.6941 15.0502 32.7418 14.9871 32.7721 14.9411C32.7871 14.9183 32.7975 14.9 32.8037 14.8886C32.8068 14.8829 32.8088 14.8789 32.8098 14.8769L32.8102 14.8761Z" fill="#203627"/>
<path d="M38.1335 14.7014C38.1883 14.5785 38.3324 14.5234 38.4552 14.5783C38.578 14.6331 38.6332 14.7772 38.5783 14.9C38.5455 14.9734 38.4918 15.0372 38.442 15.0877C38.3892 15.1411 38.3259 15.1942 38.2577 15.2448C38.1212 15.3461 37.9519 15.4476 37.777 15.5319C37.6032 15.6158 37.4139 15.6877 37.2376 15.7236C37.0753 15.7567 36.8636 15.772 36.695 15.6681L36.9506 15.2534C36.9478 15.2516 36.9581 15.2588 36.9944 15.2608C37.0298 15.2627 37.0785 15.2588 37.1403 15.2462C37.2643 15.2209 37.4139 15.1662 37.5653 15.0932C37.7158 15.0206 37.8583 14.9347 37.9674 14.8537C38.022 14.8132 38.065 14.7763 38.0955 14.7454C38.129 14.7115 38.1356 14.6966 38.1335 14.7014ZM36.6154 15.333C36.686 15.2185 36.8361 15.1828 36.9506 15.2534L36.695 15.6681C36.5805 15.5975 36.5449 15.4475 36.6154 15.333Z" fill="#203627"/>
<path d="M36.6673 20.7354C36.6673 22.9375 35.5001 24.7227 34.0602 24.7227C32.6204 24.7227 31.4531 22.9375 31.4531 20.7354C31.4531 18.5333 32.6204 16.7481 34.0602 16.7481C35.5001 16.7481 36.6673 18.5333 36.6673 20.7354Z" fill="#B9E6FF"/>
<path d="M36.1801 20.7354C36.1801 19.7153 35.9089 18.814 35.496 18.1826C35.0803 17.5468 34.5621 17.2353 34.0602 17.2353C33.5583 17.2353 33.0402 17.5468 32.6245 18.1826C32.2116 18.814 31.9403 19.7153 31.9403 20.7354C31.9403 21.7556 32.2116 22.6568 32.6245 23.2883C33.0402 23.9241 33.5583 24.2356 34.0602 24.2356V24.7228L33.9929 24.7215C32.6065 24.6677 31.4891 22.9587 31.454 20.8383L31.4531 20.7354C31.4531 18.5333 32.6204 16.7481 34.0602 16.7481L34.1274 16.7494C35.5362 16.804 36.6672 18.5677 36.6672 20.7354L36.6664 20.8383C36.6307 22.9929 35.4776 24.7227 34.0602 24.7228V24.2356C34.5621 24.2356 35.0803 23.9241 35.496 23.2883C35.9089 22.6568 36.1801 21.7556 36.1801 20.7354Z" fill="#203627"/>
<mask id="mask0_18203_5755" style="mask-type:alpha" maskUnits="userSpaceOnUse" x="31" y="16" width="6" height="9">
<path d="M36.6673 20.7354C36.6673 22.9375 35.5001 24.7227 34.0602 24.7227C32.6204 24.7227 31.4531 22.9375 31.4531 20.7354C31.4531 18.5333 32.6204 16.7481 34.0602 16.7481C35.5001 16.7481 36.6673 18.5333 36.6673 20.7354Z" fill="#B9E6FF"/>
</mask>
<g mask="url(#mask0_18203_5755)">
<path d="M35.4405 20.2754C35.4405 22.0541 34.4793 23.496 33.2935 23.496C32.1077 23.496 31.1465 22.0541 31.1465 20.2754C31.1465 18.4968 32.1077 17.0549 33.2935 17.0549C34.4793 17.0549 35.4405 18.4968 35.4405 20.2754Z" fill="#203627"/>
</g>
<path d="M41.013 20.7354C41.013 22.9375 39.8458 24.7227 38.4059 24.7227C36.9661 24.7227 35.7988 22.9375 35.7988 20.7354C35.7988 18.5333 36.9661 16.7481 38.4059 16.7481C39.8458 16.7481 41.013 18.5333 41.013 20.7354Z" fill="#B9E6FF"/>
<path d="M40.5258 20.7354C40.5258 19.7153 40.2546 18.814 39.8417 18.1826C39.426 17.5468 38.9078 17.2353 38.4059 17.2353C37.904 17.2353 37.3859 17.5468 36.9702 18.1826C36.5573 18.814 36.286 19.7153 36.286 20.7354C36.286 21.7556 36.5573 22.6568 36.9702 23.2883C37.3859 23.9241 37.9041 24.2356 38.4059 24.2356V24.7228L38.3386 24.7215C36.9522 24.6677 35.8348 22.9587 35.7997 20.8383L35.7988 20.7354C35.7988 18.5333 36.9661 16.7481 38.4059 16.7481L38.4731 16.7494C39.8819 16.804 41.0129 18.5677 41.0129 20.7354L41.0121 20.8383C40.9764 22.9929 39.8233 24.7227 38.4059 24.7228V24.2356C38.9078 24.2356 39.426 23.9241 39.8417 23.2883C40.2546 22.6568 40.5258 21.7556 40.5258 20.7354Z" fill="#203627"/>
<mask id="mask1_18203_5755" style="mask-type:alpha" maskUnits="userSpaceOnUse" x="35" y="16" width="7" height="9">
<path d="M41.013 20.7354C41.013 22.9375 39.8458 24.7227 38.4059 24.7227C36.9661 24.7227 35.7988 22.9375 35.7988 20.7354C35.7988 18.5333 36.9661 16.7481 38.4059 16.7481C39.8458 16.7481 41.013 18.5333 41.013 20.7354Z" fill="#B9E6FF"/>
</mask>
<g mask="url(#mask1_18203_5755)">
<path d="M39.7862 20.2754C39.7862 22.0541 38.825 23.496 37.6392 23.496C36.4534 23.496 35.4922 22.0541 35.4922 20.2754C35.4922 18.4968 36.4534 17.0549 37.6392 17.0549C38.825 17.0549 39.7862 18.4968 39.7862 20.2754Z" fill="#203627"/>
</g>
</svg>
