<svg width="32" height="32" viewBox="0 0 32 32" fill="none" xmlns="http://www.w3.org/2000/svg">
<path d="M16.0002 5.33331C11.5819 5.33331 8.00016 8.91503 8.00016 13.3333L8.00016 18.6666M16.0002 5.33331C20.4184 5.33331 24.0002 8.91503 24.0002 13.3333L24.0002 18.6666M16.0002 5.33331C13.0546 5.33331 10.6668 7.72113 10.6668 10.6666C10.6668 13.6122 13.0546 16 16.0002 16C18.9457 16 21.3335 13.6122 21.3335 10.6666C21.3335 7.72113 18.9457 5.33331 16.0002 5.33331ZM26.6668 18.6666H21.3335M10.6668 18.6666H5.33349M23.7 26.6666H24.3004C26.1205 26.6666 27.4058 24.8835 26.8302 23.1567L25.6374 19.5783C25.4559 19.0339 24.9464 18.6666 24.3725 18.6666H23.6278C23.0539 18.6666 22.5444 19.0339 22.3629 19.5783L21.1701 23.1567C20.5946 24.8835 21.8798 26.6666 23.7 26.6666ZM7.69996 26.6666H8.30036C10.1205 26.6666 11.4058 24.8835 10.8302 23.1567L9.63739 19.5783C9.45591 19.0339 8.94639 18.6666 8.37248 18.6666H7.62784C7.05393 18.6666 6.54441 19.0339 6.36293 19.5783L5.17014 23.1567C4.59456 24.8835 5.87981 26.6666 7.69996 26.6666Z" stroke="#4D96BF" stroke-width="1.5" stroke-linecap="round" stroke-linejoin="round"/>
</svg>
