<svg width="40" height="40" viewBox="0 0 40 40" fill="none" xmlns="http://www.w3.org/2000/svg">
<path d="M20.0003 32.973C27.1651 32.973 32.9733 27.1648 32.9733 20C32.9733 12.8352 27.1651 7.02704 20.0003 7.02704C12.8355 7.02704 7.02734 12.8352 7.02734 20C7.02734 27.1648 12.8355 32.973 20.0003 32.973Z" fill="#C1C4C6"/>
<path d="M14.8111 22.5946C14.8111 22.5946 16.7571 25.1892 20.0003 25.1892C23.2436 25.1892 25.1895 22.5946 25.1895 22.5946" fill="#C1C4C6"/>
<path d="M14.8111 22.5946C14.8111 22.5946 16.7571 25.1892 20.0003 25.1892C23.2436 25.1892 25.1895 22.5946 25.1895 22.5946M16.1214 16.7568V16.1081M23.8922 16.1081C23.8922 16.7568 23.8922 16.7568 23.8922 16.7568M32.9733 20C32.9733 27.1648 27.1651 32.973 20.0003 32.973C12.8355 32.973 7.02734 27.1648 7.02734 20C7.02734 12.8352 12.8355 7.02704 20.0003 7.02704C27.1651 7.02704 32.9733 12.8352 32.9733 20Z" stroke="#898D8F" stroke-width="1.5" stroke-linecap="round" stroke-linejoin="round"/>
</svg>
