<svg xmlns="http://www.w3.org/2000/svg" width="40" height="40" viewBox="0 0 40 40" fill="none">
  <path d="M30.9726 12.2709C30.3386 11.6367 29.5859 11.1335 28.7574 10.7902C27.9289 10.447 27.0409 10.2703 26.1442 10.2703C25.2474 10.2703 24.3594 10.447 23.5309 10.7902C22.7024 11.1335 21.9497 11.6367 21.3157 12.2709L20.5 13.0866C20.2239 13.3628 19.7761 13.3628 19.4999 13.0866L18.6843 12.2709C17.4037 10.9904 15.6668 10.2709 13.8558 10.2709C12.0448 10.2709 10.3079 10.9904 9.02736 12.2709C7.74677 13.5515 7.02734 15.2884 7.02734 17.0994C7.02734 18.9104 7.74677 20.6473 9.02736 21.9278L16.9996 29.9001C18.6567 31.5572 21.3433 31.5572 23.0004 29.9001L30.9726 21.9278C31.6069 21.2939 32.11 20.5411 32.4533 19.7127C32.7966 18.8842 32.9733 17.9962 32.9733 17.0994C32.9733 16.2026 32.7966 15.3146 32.4533 14.4861C32.11 13.6576 31.6069 12.9049 30.9726 12.2709Z" fill="#89BAD5" stroke="#26536B" stroke-width="1.5" stroke-linecap="round" stroke-linejoin="round"/>
</svg>