<svg width="25" height="24" viewBox="0 0 25 24" fill="none" xmlns="http://www.w3.org/2000/svg">
<path d="M9.83333 17.3333L9.07236 8.53983C8.93741 6.98041 10.024 5.57932 11.568 5.322L16.2979 4.53368C18.024 4.24599 19.629 5.49076 19.7799 7.23422L20.5 15.5556M9.83333 17.3333C9.83333 18.8061 8.63943 20 7.16667 20C5.69391 20 4.5 18.8061 4.5 17.3333C4.5 15.8606 5.69391 14.6667 7.16667 14.6667C8.63943 14.6667 9.83333 15.8606 9.83333 17.3333ZM20.5 15.5556C20.5 17.0283 19.3061 18.2222 17.8333 18.2222C16.3606 18.2222 15.1667 17.0283 15.1667 15.5556C15.1667 14.0828 16.3606 12.8889 17.8333 12.8889C19.3061 12.8889 20.5 14.0828 20.5 15.5556Z" stroke="#8A930F" stroke-width="1.5" stroke-linecap="round" stroke-linejoin="round"/>
</svg>
