<svg width="32" height="32" viewBox="0 0 32 32" fill="none" xmlns="http://www.w3.org/2000/svg">
<path d="M12.4441 23.1111L11.4295 11.3864C11.2496 9.3072 12.6984 7.43907 14.757 7.09598L21.0635 6.04489C23.365 5.6613 25.505 7.32099 25.7062 9.6456L26.6663 20.7407M12.4441 23.1111C12.4441 25.0748 10.8522 26.6666 8.88856 26.6666C6.92488 26.6666 5.33301 25.0748 5.33301 23.1111C5.33301 21.1474 6.92488 19.5555 8.88856 19.5555C10.8522 19.5555 12.4441 21.1474 12.4441 23.1111ZM26.6663 20.7407C26.6663 22.7044 25.0745 24.2963 23.1108 24.2963C21.1471 24.2963 19.5552 22.7044 19.5552 20.7407C19.5552 18.777 21.1471 17.1852 23.1108 17.1852C25.0745 17.1852 26.6663 18.777 26.6663 20.7407Z" stroke="#4D96BF" stroke-width="1.5" stroke-linecap="round" stroke-linejoin="round"/>
</svg>
