<svg width="16" height="16" viewBox="0 0 16 16" fill="none" xmlns="http://www.w3.org/2000/svg">
<path d="M3.70508 2.85022C4.30203 2.56165 4.98517 2.6192 5.5293 2.9928L5.63672 3.0719L10.0127 6.57483V6.57581C10.4505 6.92921 10.7001 7.44694 10.7002 7.99963C10.7002 8.5546 10.449 9.07683 10.0156 9.42151L10.0146 9.42346L5.63477 12.9293C5.29586 13.1992 4.89875 13.3336 4.5 13.3336C4.23226 13.3336 3.96149 13.2756 3.70703 13.151L3.70508 13.15L3.58691 13.0875C3.01405 12.7599 2.66699 12.1681 2.66699 11.5065V4.49377C2.66699 3.78564 3.06409 3.15454 3.70215 2.8512L3.70508 2.85022Z" fill="#6E7375" stroke="#6E7375"/>
</svg>
