<svg width="120" height="121" viewBox="0 0 120 121" fill="none" xmlns="http://www.w3.org/2000/svg">
<g clip-path="url(#clip0_18161_26585)">
<path d="M60 0.5C26.8618 0.5 0 27.3618 0 60.5C0 93.6382 26.8618 120.5 60 120.5C93.1382 120.5 120 93.6382 120 60.5C120 27.3659 93.1382 0.504094 60 0.5ZM87.5169 87.0343C86.4401 88.803 84.1351 89.3557 82.3746 88.2789C68.2866 79.6689 50.5507 77.7242 29.6663 82.4939C27.652 82.9565 25.6459 81.6955 25.1873 79.6812C24.7247 77.6668 25.9816 75.6607 28 75.2021C50.8536 69.9821 70.4606 72.2298 86.2764 81.892C88.0368 82.977 88.5978 85.2738 87.5169 87.0343ZM94.8577 70.7027C93.5026 72.9053 90.6203 73.5931 88.4217 72.2421C72.2989 62.3301 47.7093 59.4601 28.6346 65.2492C26.1617 65.9985 23.5496 64.6024 22.7963 62.1336C22.0512 59.6607 23.4473 57.0527 25.9161 56.2994C47.7052 49.6873 74.7963 52.8889 93.3142 64.2707C95.5169 65.6259 96.2129 68.5041 94.8577 70.7027ZM95.4882 53.6873C76.1474 42.2032 44.2457 41.1469 25.781 46.7477C22.8168 47.6484 19.6807 45.9739 18.784 43.0097C17.8874 40.0456 19.5578 36.9094 22.5261 36.0087C43.7216 29.5768 78.9519 30.8173 101.216 44.0333C103.881 45.6177 104.757 49.0609 103.177 51.7221C101.601 54.3915 98.1494 55.2718 95.4882 53.6873Z" fill="#2EBD59"/>
</g>
<defs>
<clipPath id="clip0_18161_26585">
<rect width="120" height="120" fill="white" transform="translate(0 0.5)"/>
</clipPath>
</defs>
</svg>
