<svg width="40" height="40" viewBox="0 0 40 40" fill="none" xmlns="http://www.w3.org/2000/svg">
<path d="M24.8652 11.8919H10.2706C8.47939 11.8919 7.02734 13.344 7.02734 15.1352V24.8649C7.02734 26.6561 8.47939 28.1081 10.2706 28.1081H24.8652C26.6564 28.1081 28.1084 26.6561 28.1084 24.8649V15.1352C28.1084 13.344 26.6564 11.8919 24.8652 11.8919Z" fill="#C1C4C6"/>
<path d="M28.1084 15.1352H31.3517C32.2467 15.1352 32.9733 15.8618 32.9733 16.7568V23.2433C32.9733 24.1383 32.2467 24.8649 31.3517 24.8649H28.1084V15.1352Z" fill="#C1C4C6"/>
<path d="M28.1084 15.1352C28.1084 13.344 26.6564 11.8919 24.8652 11.8919H10.2706C8.47939 11.8919 7.02734 13.344 7.02734 15.1352V24.8649C7.02734 26.6561 8.47939 28.1081 10.2706 28.1081H24.8652C26.6564 28.1081 28.1084 26.6561 28.1084 24.8649M28.1084 15.1352V24.8649M28.1084 15.1352H31.3517C32.2467 15.1352 32.9733 15.8618 32.9733 16.7568V23.2433C32.9733 24.1383 32.2467 24.8649 31.3517 24.8649H28.1084" stroke="#898D8F" stroke-width="1.5" stroke-linecap="round" stroke-linejoin="round"/>
</svg>
