<svg width="25" height="25" viewBox="0 0 25 25" fill="none" xmlns="http://www.w3.org/2000/svg">
<path d="M17.7356 20.5C18.3451 20.5 18.9071 20.1713 19.2059 19.6401V19.6401C19.5219 19.0784 19.4872 18.3849 19.0194 17.9417C18.0128 16.988 15.8978 15.5 12.5 15.5C9.10834 15.5 7.09708 16.9827 6.1541 17.9365C5.70946 18.3863 5.69264 19.0647 6.00271 19.6159V19.6159" stroke="#0D4F2B" stroke-width="1.5" stroke-linecap="round" stroke-linejoin="round"/>
<path d="M12.6111 11.6111C14.5748 11.6111 16.1667 10.0192 16.1667 8.05556C16.1667 6.09188 14.5748 4.5 12.6111 4.5C10.6474 4.5 9.05556 6.09188 9.05556 8.05556C9.05556 10.0192 10.6474 11.6111 12.6111 11.6111Z" stroke="#0D4F2B" stroke-width="1.5" stroke-linecap="round" stroke-linejoin="round"/>
</svg>
